<svg width="211" height="36" viewBox="0 0 211 36" fill="none" xmlns="http://www.w3.org/2000/svg">
<g clip-path="url(#clip0_1_291)">
<path d="M9.70226 0L18.0059 8.29933L15.2527 15.2448L8.30363 17.9966L0 9.69724L2.73849 2.76351L9.70226 0Z" fill="#02676C"/>
<path d="M27.7039 18L36.0076 26.2993L33.2544 33.2448L26.3053 35.9966L18.0017 27.6972L20.7402 20.7635L27.7039 18Z" fill="#02676C"/>
<path d="M18.0017 8.29933L26.3053 0L33.2544 2.75176L36.0076 9.69724L27.7039 17.9966L20.7666 15.2595L18.0017 8.29933Z" fill="#02676C"/>
<path d="M0 26.2993L8.30363 18L15.2527 20.7488L18.0059 27.6972L9.70226 35.9966L2.76494 33.2595L0 26.2993Z" fill="#02676C"/>
<path d="M60.9992 15.8584H50.8474V6.87183H46.3342V29.0886H50.8474V19.9699H60.9992V29.0886H65.5771V6.87183H60.9992V15.8584Z" fill="#212121"/>
<path d="M79.6664 13.0614C78.5498 12.4975 77.1953 12.2156 75.6027 12.2156C74.0102 12.2156 72.7496 12.4858 71.6213 13.0291C70.493 13.5724 69.6145 14.3271 68.9827 15.2992C68.351 16.2713 68.0366 17.4107 68.0366 18.7147V19.0788H72.35V18.7147C72.35 17.7631 72.5939 17.1053 73.0787 16.7412C73.5635 16.377 74.3392 16.1949 75.4 16.1949C76.4607 16.1949 77.2129 16.3506 77.7888 16.6589C78.3647 16.9702 78.6527 17.6868 78.6527 18.8145V19.3931L72.9142 20.2389C71.7653 20.3945 70.7898 20.6706 69.9935 21.067C69.1972 21.4664 68.6007 21.9833 68.2011 22.6265C67.8015 23.2667 67.6047 24.0185 67.6047 24.8819C67.6047 26.362 68.1071 27.4898 69.1149 28.2651C70.1198 29.0404 71.3539 29.4251 72.8143 29.4251C73.875 29.4251 74.7712 29.2929 75.5028 29.0257C76.2315 28.7614 76.8515 28.4178 77.3598 27.9978C77.8681 27.5779 78.2883 27.1579 78.6203 26.7379H78.7526V29.0932H82.9984V19.2785C82.9984 17.7984 82.7222 16.5326 82.1698 15.4813C81.6174 14.4328 80.7829 13.6252 79.6634 13.0614H79.6664ZM77.9915 24.6499C77.5479 25.1374 76.9955 25.4693 76.3314 25.6455C75.6673 25.8217 75.015 25.9098 74.3745 25.9098C73.5547 25.9098 72.9524 25.804 72.5674 25.5955C72.1796 25.387 71.9857 25.0375 71.9857 24.55C71.9857 24.1536 72.1238 23.8482 72.4 23.6396C72.6762 23.4311 73.114 23.2814 73.7104 23.1933L78.6527 22.4473V22.4972C78.6527 23.4488 78.4323 24.1653 77.9886 24.6528L77.9915 24.6499Z" fill="#212121"/>
<path d="M96.6278 12.553L94.0745 19.6159L92.9461 22.8317H92.6464L91.286 19.6159L88.4006 12.553H83.3585L90.3781 28.4703L89.9932 29.3014C89.7287 29.8976 89.4349 30.2735 89.1146 30.4291C88.7943 30.5848 88.3007 30.6611 87.6396 30.6611H85.0509V34.4085C85.3595 34.4966 85.7738 34.5729 86.2938 34.6405C86.8139 34.708 87.3281 34.7403 87.8364 34.7403C88.9207 34.7403 89.8374 34.617 90.5896 34.3762C91.3418 34.1324 91.9941 33.6978 92.5465 33.0664C93.0989 32.435 93.6073 31.5804 94.0715 30.4967L101.67 12.5559H96.6278V12.553Z" fill="#212121"/>
<path d="M114.166 13.2758C112.938 12.568 111.451 12.2156 109.703 12.2156C107.955 12.2156 106.447 12.568 105.175 13.2758C103.903 13.9835 102.936 14.982 102.272 16.2771C101.608 17.5693 101.276 19.0788 101.276 20.8027C101.276 22.5266 101.608 24.0684 102.272 25.3635C102.936 26.6557 103.903 27.6572 105.175 28.3649C106.447 29.0727 107.958 29.4251 109.703 29.4251C111.448 29.4251 112.938 29.0727 114.166 28.3649C115.394 27.6572 116.343 26.6587 117.019 25.3635C117.695 24.0713 118.03 22.5501 118.03 20.8027C118.03 19.0553 117.692 17.5693 117.019 16.2771C116.343 14.985 115.394 13.9835 114.166 13.2758ZM112.773 24.3856C112.186 25.0699 111.163 25.4135 109.706 25.4135C108.248 25.4135 107.244 25.0699 106.638 24.3856C106.03 23.7013 105.727 22.506 105.727 20.8057C105.727 19.1053 106.03 17.9159 106.638 17.2404C107.247 16.5649 108.269 16.2302 109.706 16.2302C111.143 16.2302 112.189 16.5679 112.773 17.2404C113.358 17.9159 113.652 19.1023 113.652 20.8057C113.652 22.509 113.358 23.7013 112.773 24.3856Z" fill="#212121"/>
<path d="M125.504 8.53419H121.955L121.056 12.5458H118.238V16.2932H120.959V23.688C120.959 25.635 121.485 27.0212 122.534 27.8494C123.583 28.6775 125.149 29.0916 127.229 29.0916C127.782 29.0916 128.334 29.0593 128.889 28.9918C129.442 28.9242 129.918 28.8479 130.317 28.7598V25.0124H128.425C127.253 25.0124 126.474 24.9126 126.086 24.7129C125.698 24.5132 125.504 24.0286 125.504 23.2533V16.2902H130.314V12.5429H125.504V8.53125V8.53419Z" fill="#212121"/>
<path d="M151.545 17.4853V17.1535C153.025 16.9773 154.127 16.4751 154.844 15.644C155.564 14.8158 155.923 13.7498 155.923 12.4429C155.923 11.136 155.646 10.0788 155.094 9.25943C154.542 8.443 153.734 7.83803 152.673 7.45331C151.612 7.06565 150.316 6.87183 148.791 6.87183H138.075V29.0915H149.256C150.892 29.0915 152.273 28.8419 153.402 28.3455C154.53 27.8492 155.382 27.1415 155.955 26.2223C156.531 25.306 156.819 24.2282 156.819 22.9889C156.819 21.5087 156.375 20.2577 155.491 19.2415C154.606 18.2254 153.29 17.6381 151.542 17.4853H151.545ZM142.586 10.9539H148.424C149.464 10.9539 150.216 11.1096 150.681 11.418C151.145 11.7263 151.377 12.3783 151.377 13.3739C151.377 14.3694 151.145 14.9891 150.681 15.2974C150.216 15.6058 149.476 15.7615 148.456 15.7615H142.583V10.9539H142.586ZM151.412 24.4984C150.88 24.842 150.108 25.0123 149.091 25.0123H142.589V19.5411H149.091C150.108 19.5411 150.883 19.7055 151.412 20.0374C151.944 20.3693 152.209 21.1211 152.209 22.2928C152.209 23.4646 151.944 24.1548 151.412 24.4984Z" fill="#212121"/>
<path d="M170.237 13.0614C169.12 12.4975 167.766 12.2156 166.173 12.2156C164.581 12.2156 163.32 12.4858 162.192 13.0291C161.063 13.5724 160.185 14.3271 159.553 15.2992C158.921 16.2713 158.607 17.4107 158.607 18.7147V19.0788H162.92V18.7147C162.92 17.7631 163.164 17.1053 163.649 16.7412C164.134 16.377 164.91 16.1949 165.97 16.1949C167.031 16.1949 167.783 16.3506 168.359 16.6589C168.935 16.9702 169.223 17.6868 169.223 18.8145V19.3931L163.485 20.2389C162.336 20.3945 161.36 20.6706 160.564 21.067C159.768 21.4664 159.171 21.9833 158.772 22.6265C158.372 23.2667 158.175 24.0185 158.175 24.8819C158.175 26.362 158.678 27.4898 159.685 28.2651C160.69 29.0404 161.924 29.4251 163.385 29.4251C164.445 29.4251 165.342 29.2929 166.073 29.0257C166.802 28.7614 167.422 28.4178 167.93 27.9978C168.439 27.5779 168.859 27.1579 169.191 26.7379H169.323V29.0932H173.569V19.2785C173.569 17.7984 173.293 16.5326 172.74 15.4813C172.188 14.4328 171.35 13.6252 170.234 13.0614H170.237ZM168.562 24.6499C168.118 25.1374 167.566 25.4693 166.902 25.6455C166.238 25.8217 165.585 25.9098 164.945 25.9098C164.125 25.9098 163.523 25.804 163.138 25.5955C162.75 25.387 162.556 25.0375 162.556 24.55C162.556 24.1536 162.694 23.8482 162.97 23.6396C163.247 23.4311 163.684 23.2814 164.281 23.1933L169.223 22.4473V22.4972C169.223 23.4488 169.003 24.1653 168.559 24.6528L168.562 24.6499Z" fill="#212121"/>
<path d="M189.714 13.0614C188.797 12.4975 187.607 12.2156 186.147 12.2156C185.13 12.2156 184.254 12.3536 183.526 12.6297C182.797 12.9057 182.189 13.2992 181.701 13.8073C181.213 14.3154 180.816 14.8792 180.508 15.4989H180.343V12.5474H176.13V29.0932H180.675V19.7102C180.675 18.7822 180.808 18.0568 181.075 17.537C181.34 17.0172 181.739 16.653 182.268 16.4416C182.8 16.2331 183.484 16.1274 184.325 16.1274C185.653 16.1274 186.564 16.3829 187.063 16.8909C187.56 17.399 187.81 18.2741 187.81 19.5105V29.0932H192.388V18.6471C192.388 17.4313 192.173 16.3359 191.741 15.3638C191.309 14.3917 190.636 13.6223 189.717 13.0584L189.714 13.0614Z" fill="#212121"/>
<path d="M211.359 12.5427H206.053L202.071 18.7746H199.483V6.87183H194.937V29.0886H199.483V22.8538H202.136L206.017 29.0886H211.327L205.721 20.3693L211.359 12.5427Z" fill="#212121"/>
</g>
<defs>
<clipPath id="clip0_1_291">
<rect width="211" height="36" fill="white"/>
</clipPath>
</defs>
</svg>
