<svg width="36" height="36" viewBox="0 0 36 36" fill="none" xmlns="http://www.w3.org/2000/svg">
<rect x="0.271215" y="0.271215" width="35.4576" height="35.4576" rx="6.94005" fill="#02676C" stroke="#02676C" stroke-width="0.542429"/>
<g clip-path="url(#clip0_1_329)">
<path d="M29.4144 12.24C29.1417 11.2271 28.3431 10.4285 27.3302 10.1558C25.4798 9.64941 18.0781 9.64941 18.0781 9.64941C18.0781 9.64941 10.6764 9.64941 8.82599 10.1364C7.83261 10.4091 7.01453 11.2271 6.74184 12.24C6.25488 14.0904 6.25488 17.9276 6.25488 17.9276C6.25488 17.9276 6.25488 21.7843 6.74184 23.6152C7.01453 24.6281 7.81313 25.4267 8.82599 25.6994C10.6959 26.2058 18.0781 26.2058 18.0781 26.2058C18.0781 26.2058 25.4798 26.2058 27.3302 25.7189C28.3431 25.4462 29.1417 24.6476 29.4144 23.6347C29.9013 21.7843 29.9013 17.9471 29.9013 17.9471C29.9013 17.9471 29.9208 14.0904 29.4144 12.24Z" fill="#F4F5F6"/>
<path d="M15.7212 21.4726L21.8763 17.9276L15.7212 14.3826V21.4726Z" fill="#02676C"/>
</g>
<defs>
<clipPath id="clip0_1_329">
<rect width="23.6465" height="23.6465" fill="white" transform="translate(6.25488 6.10229)"/>
</clipPath>
</defs>
</svg>
