<svg width="36" height="36" viewBox="0 0 36 36" fill="none" xmlns="http://www.w3.org/2000/svg">
<rect x="0.271215" y="0.271215" width="35.4576" height="35.4576" rx="6.94005" fill="#02676C" stroke="#02676C" stroke-width="0.542429"/>
<g clip-path="url(#clip0_1_315)">
<path fill-rule="evenodd" clip-rule="evenodd" d="M7.19393 17.2293C13.3041 14.5672 17.3785 12.8122 19.4171 11.9643C25.2378 9.54324 26.4473 9.12268 27.2356 9.10879C27.409 9.10574 27.7967 9.14871 28.0478 9.35247C28.2599 9.52453 28.3182 9.75696 28.3461 9.92009C28.374 10.0832 28.4088 10.4548 28.3812 10.7452C28.0657 14.0594 26.7009 22.1021 26.0065 25.8141C25.7127 27.3847 25.1342 27.9114 24.5741 27.9629C23.357 28.0749 22.4327 27.1585 21.2538 26.3858C19.4091 25.1765 18.367 24.4238 16.5764 23.2438C14.507 21.8801 15.8485 21.1306 17.0278 19.9057C17.3364 19.5851 22.6993 14.7072 22.8031 14.2647C22.8161 14.2094 22.8281 14.0031 22.7056 13.8941C22.583 13.7852 22.4021 13.8225 22.2716 13.8521C22.0866 13.8941 19.1396 15.8419 13.4307 19.6956C12.5942 20.27 11.8366 20.5498 11.1577 20.5352C10.4094 20.519 8.96981 20.112 7.89965 19.7642C6.58705 19.3375 5.54382 19.1119 5.63466 18.3873C5.68198 18.0099 6.20174 17.6239 7.19393 17.2293Z" fill="#F4F5F6"/>
</g>
<defs>
<clipPath id="clip0_1_315">
<rect width="23.6465" height="23.6465" fill="white" transform="translate(5.18689 6.10229)"/>
</clipPath>
</defs>
</svg>
