<svg width="36" height="36" viewBox="0 0 36 36" fill="none" xmlns="http://www.w3.org/2000/svg">
<rect x="0.271215" y="0.271215" width="35.4576" height="35.4576" rx="6.94005" fill="#02676C" stroke="#02676C" stroke-width="0.542429"/>
<g clip-path="url(#clip0_1_319)">
<path d="M18.0746 8.23321C21.2334 8.23321 21.6042 8.24729 22.8527 8.30361C24.0074 8.35524 24.6316 8.54768 25.0494 8.71196C25.6032 8.92786 25.9975 9.18132 26.4105 9.59436C26.8236 10.0074 27.0817 10.4017 27.2929 10.9555C27.4525 11.3732 27.6496 11.9975 27.7013 13.1521C27.7576 14.4006 27.7717 14.7714 27.7717 17.9303C27.7717 21.0891 27.7576 21.4599 27.7013 22.7084C27.6496 23.863 27.4572 24.4873 27.2929 24.905C27.077 25.4588 26.8236 25.8531 26.4105 26.2661C25.9975 26.6792 25.6032 26.9373 25.0494 27.1486C24.6316 27.3081 24.0074 27.5053 22.8527 27.5569C21.6042 27.6132 21.2334 27.6273 18.0746 27.6273C14.9158 27.6273 14.545 27.6132 13.2965 27.5569C12.1419 27.5053 11.5176 27.3128 11.0999 27.1486C10.546 26.9326 10.1518 26.6792 9.73872 26.2661C9.32568 25.8531 9.06753 25.4588 8.85631 24.905C8.69673 24.4873 8.4996 23.863 8.44797 22.7084C8.39164 21.4599 8.37756 21.0891 8.37756 17.9303C8.37756 14.7714 8.39164 14.4006 8.44797 13.1521C8.4996 11.9975 8.69203 11.3732 8.85631 10.9555C9.07222 10.4017 9.32568 10.0074 9.73872 9.59436C10.1518 9.18132 10.546 8.92317 11.0999 8.71196C11.5176 8.55237 12.1419 8.35524 13.2965 8.30361C14.545 8.24259 14.9205 8.23321 18.0746 8.23321ZM18.0746 6.10229C14.8642 6.10229 14.4605 6.11638 13.1979 6.1727C11.94 6.22902 11.0811 6.43085 10.3301 6.72185C9.55097 7.02225 8.89386 7.43059 8.23675 8.0877C7.57964 8.74481 7.17599 9.40661 6.8709 10.1811C6.5799 10.932 6.37807 11.791 6.32175 13.0536C6.26542 14.3115 6.25134 14.7151 6.25134 17.9256C6.25134 21.136 6.26542 21.5397 6.32175 22.8022C6.37807 24.0601 6.5799 24.9191 6.8709 25.6748C7.1713 26.4539 7.57964 27.111 8.23675 27.7681C8.89386 28.4252 9.55566 28.8289 10.3301 29.134C11.0811 29.425 11.94 29.6268 13.2026 29.6831C14.4652 29.7394 14.8642 29.7535 18.0793 29.7535C21.2945 29.7535 21.6934 29.7394 22.956 29.6831C24.2139 29.6268 25.0728 29.425 25.8285 29.134C26.6077 28.8336 27.2648 28.4252 27.9219 27.7681C28.579 27.111 28.9826 26.4492 29.2877 25.6748C29.5787 24.9238 29.7806 24.0648 29.8369 22.8022C29.8932 21.5397 29.9073 21.1407 29.9073 17.9256C29.9073 14.7104 29.8932 14.3115 29.8369 13.0489C29.7806 11.791 29.5787 10.932 29.2877 10.1764C28.9873 9.39723 28.579 8.74012 27.9219 8.08301C27.2648 7.4259 26.603 7.02225 25.8285 6.71716C25.0775 6.42616 24.2186 6.22433 22.956 6.16801C21.6887 6.11638 21.2851 6.10229 18.0746 6.10229Z" fill="#F4F5F6"/>
<path d="M18.0746 8.23321C21.2334 8.23321 21.6042 8.24729 22.8527 8.30361C24.0074 8.35524 24.6316 8.54768 25.0494 8.71196C25.6032 8.92786 25.9975 9.18132 26.4105 9.59436C26.8236 10.0074 27.0817 10.4017 27.2929 10.9555C27.4525 11.3732 27.6496 11.9975 27.7013 13.1521C27.7576 14.4006 27.7717 14.7714 27.7717 17.9303C27.7717 21.0891 27.7576 21.4599 27.7013 22.7084C27.6496 23.863 27.4572 24.4873 27.2929 24.905C27.077 25.4588 26.8236 25.8531 26.4105 26.2661C25.9975 26.6792 25.6032 26.9373 25.0494 27.1486C24.6316 27.3081 24.0074 27.5053 22.8527 27.5569C21.6042 27.6132 21.2334 27.6273 18.0746 27.6273C14.9158 27.6273 14.545 27.6132 13.2965 27.5569C12.1419 27.5053 11.5176 27.3128 11.0999 27.1486C10.546 26.9326 10.1518 26.6792 9.73872 26.2661C9.32568 25.8531 9.06753 25.4588 8.85631 24.905C8.69673 24.4873 8.4996 23.863 8.44797 22.7084C8.39164 21.4599 8.37756 21.0891 8.37756 17.9303C8.37756 14.7714 8.39164 14.4006 8.44797 13.1521C8.4996 11.9975 8.69203 11.3732 8.85631 10.9555C9.07222 10.4017 9.32568 10.0074 9.73872 9.59436C10.1518 9.18132 10.546 8.92317 11.0999 8.71196C11.5176 8.55237 12.1419 8.35524 13.2965 8.30361C14.545 8.24259 14.9205 8.23321 18.0746 8.23321Z" fill="#F4F5F6"/>
<path d="M18.0748 11.8567C14.7235 11.8567 12.0012 14.5743 12.0012 17.9303C12.0012 21.2862 14.7188 24.0038 18.0748 24.0038C21.4307 24.0038 24.1483 21.2862 24.1483 17.9303C24.1483 14.5743 21.4307 11.8567 18.0748 11.8567ZM18.0748 21.8682C15.8969 21.8682 14.1321 20.1034 14.1321 17.9256C14.1321 15.7477 15.8969 13.9829 18.0748 13.9829C20.2526 13.9829 22.0174 15.7477 22.0174 17.9256C22.0174 20.1034 20.2526 21.8682 18.0748 21.8682Z" fill="#02676C"/>
<path d="M24.3877 13.03C25.1705 13.03 25.8052 12.3954 25.8052 11.6125C25.8052 10.8297 25.1705 10.1951 24.3877 10.1951C23.6048 10.1951 22.9702 10.8297 22.9702 11.6125C22.9702 12.3954 23.6048 13.03 24.3877 13.03Z" fill="#02676C"/>
</g>
<defs>
<clipPath id="clip0_1_319">
<rect width="23.6465" height="23.6465" fill="white" transform="translate(6.25134 6.10229)"/>
</clipPath>
</defs>
</svg>
