<svg width="36" height="36" viewBox="0 0 36 36" fill="none" xmlns="http://www.w3.org/2000/svg">
<rect x="0.271215" y="0.271215" width="35.4576" height="35.4576" rx="6.94005" fill="#02676C" stroke="#02676C" stroke-width="0.542429"/>
<g clip-path="url(#clip0_1_325)">
<rect x="6.10217" y="6.10229" width="23.6465" height="23.6465" rx="11.8233" fill="#F4F5F6"/>
<path d="M22.5279 21.3432L23.0521 17.9255H19.7729V15.7086C19.7729 14.7734 20.2302 13.8613 21.6988 13.8613H23.1906V10.9516C23.1906 10.9516 21.8374 10.7207 20.5442 10.7207C17.8424 10.7207 16.0782 12.3579 16.0782 15.3207V17.9255H13.0762V21.3432H16.0782V29.6056C16.6809 29.7003 17.2974 29.7488 17.9256 29.7488C18.5537 29.7488 19.1702 29.7003 19.7729 29.6056V21.3432H22.5279Z" fill="#02676C"/>
</g>
<defs>
<clipPath id="clip0_1_325">
<rect x="6.10217" y="6.10229" width="23.6465" height="23.6465" rx="11.8233" fill="white"/>
</clipPath>
</defs>
</svg>
