<svg width="14" height="18" viewBox="0 0 14 18" fill="none" xmlns="http://www.w3.org/2000/svg">
<path d="M11.6285 9.10066C11.6083 6.93882 13.3985 5.88661 13.48 5.83695C12.4666 4.35951 10.8952 4.15698 10.3435 4.14146C9.0236 4.00334 7.74481 4.93139 7.07205 4.93139C6.39929 4.93139 5.35173 4.15543 4.23667 4.17871C2.80113 4.20121 1.45794 5.03227 0.721544 6.3227C-0.797797 8.954 0.335112 12.8214 1.7916 14.9476C2.51946 15.9905 3.37147 17.1536 4.48498 17.1117C5.57521 17.0667 5.98259 16.4165 7.29863 16.4165C8.61467 16.4165 8.98403 17.1117 10.1208 17.0853C11.2902 17.0659 12.0274 16.0386 12.7304 14.9871C13.5723 13.7929 13.9106 12.6173 13.9238 12.5568C13.8967 12.5475 11.6518 11.6916 11.6301 9.09988L11.6285 9.10066Z" fill="#02676C"/>
<path d="M9.47997 2.74304C10.0658 2.00975 10.467 1.01264 10.356 0C9.50713 0.0372464 8.44639 0.586631 7.8357 1.3044C7.29485 1.93604 6.81143 2.97195 6.93636 3.94579C7.88924 4.01718 8.86851 3.46469 9.47997 2.74304Z" fill="#02676C"/>
</svg>
