<svg width="16" height="17" viewBox="0 0 16 17" fill="none" xmlns="http://www.w3.org/2000/svg">
<path d="M2.6449 0.430091L11.8982 5.75053L9.91486 7.73389L2.6449 0.430091ZM0.72782 0L9.22177 8.46082L0.728525 16.9216C0.504755 16.8242 0.315596 16.6615 0.185778 16.4548C0.0559593 16.2481 -0.00847662 16.0071 0.00089455 15.7632V15.7653V1.15702L0.000189482 1.11119C0.000189482 0.616934 0.296318 0.191778 0.720769 0.00352534L0.728525 0.000705068L0.72782 0ZM14.7742 7.46949C15.0661 7.68595 15.2529 8.03002 15.2529 8.4171L15.2522 8.46293V8.46082C15.2702 8.64998 15.2387 8.84056 15.161 9.01394C15.0833 9.18732 14.9619 9.33758 14.8087 9.45003L14.8059 9.45214L12.8226 10.5753L10.6749 8.46082L12.8233 6.31247L14.7742 7.46949ZM2.6449 16.4915L9.91556 9.18774L11.8989 11.1711L2.6449 16.4915Z" fill="#02676C"/>
</svg>
