<svg width="48" height="48" viewBox="0 0 48 48" fill="none" xmlns="http://www.w3.org/2000/svg">
<path fill-rule="evenodd" clip-rule="evenodd" d="M24 40C32.8366 40 40 32.8366 40 24C40 15.1634 32.8366 8 24 8C15.1634 8 8 15.1634 8 24C8 32.8366 15.1634 40 24 40ZM24 44C35.0457 44 44 35.0457 44 24C44 12.9543 35.0457 4 24 4C12.9543 4 4 12.9543 4 24C4 35.0457 12.9543 44 24 44Z" fill="#FF7733"/>
<path fill-rule="evenodd" clip-rule="evenodd" d="M24 12C25.1046 12 26 12.8954 26 14V23.1716L30.4142 27.5858C31.1953 28.3668 31.1953 29.6332 30.4142 30.4142C29.6332 31.1953 28.3668 31.1953 27.5858 30.4142L22.5858 25.4142C22.2107 25.0391 22 24.5304 22 24V14C22 12.8954 22.8954 12 24 12Z" fill="#FF7733"/>
</svg>
