<svg width="48" height="48" viewBox="0 0 48 48" fill="none" xmlns="http://www.w3.org/2000/svg">
<path fill-rule="evenodd" clip-rule="evenodd" d="M18 40C23.5228 40 28 35.5228 28 30C28 24.4772 23.5228 20 18 20C12.4772 20 8 24.4772 8 30C8 35.5228 12.4772 40 18 40ZM18 44C25.732 44 32 37.732 32 30C32 22.268 25.732 16 18 16C10.268 16 4 22.268 4 30C4 37.732 10.268 44 18 44Z" fill="#FF7733"/>
<path fill-rule="evenodd" clip-rule="evenodd" d="M30 8C27.0385 8 24.3798 9.2848 22.5458 11.3338C21.8092 12.1569 20.5448 12.2269 19.7217 11.4903C18.8987 10.7536 18.8286 9.48923 19.5653 8.66617C22.1259 5.8052 25.8535 4 30 4C37.732 4 44 10.268 44 18C44 22.1465 42.1948 25.8741 39.3338 28.4347C38.5108 29.1713 37.2464 29.1013 36.5097 28.2783C35.7731 27.4552 35.8431 26.1908 36.6662 25.4542C38.7152 23.6202 40 20.9615 40 18C40 12.4772 35.5228 8 30 8Z" fill="#FF7733"/>
</svg>
