<svg width="16" height="16" viewBox="0 0 16 16" fill="none" xmlns="http://www.w3.org/2000/svg">
<path fill-rule="evenodd" clip-rule="evenodd" d="M8 12C10.7503 12 12.7061 10.2717 13.8515 8.83243C14.2488 8.33321 14.2488 7.66679 13.8515 7.16757C12.7061 5.72826 10.7503 4 8 4C5.24967 4 3.29387 5.72826 2.14849 7.16757C1.75123 7.66679 1.75123 8.33321 2.14849 8.83243C3.29387 10.2717 5.24967 12 8 12ZM14.8948 9.66267C15.6788 8.6775 15.6788 7.3225 14.8948 6.33733C13.6493 4.77217 11.351 2.66667 8 2.66667C4.64898 2.66667 2.35071 4.77217 1.10519 6.33733C0.32122 7.32249 0.321219 8.6775 1.10519 9.66267C2.35071 11.2278 4.64898 13.3333 8 13.3333C11.351 13.3333 13.6493 11.2278 14.8948 9.66267Z" fill="#FCFCFD"/>
<path fill-rule="evenodd" clip-rule="evenodd" d="M9.33337 8C9.33337 8.73638 8.73642 9.33333 8.00004 9.33333C7.26366 9.33333 6.66671 8.73638 6.66671 8C6.66671 7.98108 6.6671 7.96224 6.66788 7.94351C6.77181 7.9801 6.8836 8 7.00004 8C7.55233 8 8.00004 7.55229 8.00004 7C8.00004 6.88356 7.98014 6.77177 7.94355 6.66784C7.96228 6.66706 7.98112 6.66667 8.00004 6.66667C8.73642 6.66667 9.33337 7.26362 9.33337 8ZM10.6667 8C10.6667 9.47276 9.4728 10.6667 8.00004 10.6667C6.52728 10.6667 5.33337 9.47276 5.33337 8C5.33337 6.52724 6.52728 5.33333 8.00004 5.33333C9.4728 5.33333 10.6667 6.52724 10.6667 8Z" fill="#FCFCFD"/>
</svg>
