<svg width="16" height="16" viewBox="0 0 16 16" fill="none" xmlns="http://www.w3.org/2000/svg">
<path fill-rule="evenodd" clip-rule="evenodd" d="M8.00004 13.3333C10.9456 13.3333 13.3334 10.9455 13.3334 8C13.3334 5.05448 10.9456 2.66667 8.00004 2.66667C5.05452 2.66667 2.66671 5.05448 2.66671 8C2.66671 10.9455 5.05452 13.3333 8.00004 13.3333ZM8.00004 14.6667C11.6819 14.6667 14.6667 11.6819 14.6667 8C14.6667 4.3181 11.6819 1.33333 8.00004 1.33333C4.31814 1.33333 1.33337 4.3181 1.33337 8C1.33337 11.6819 4.31814 14.6667 8.00004 14.6667Z" fill="#FCFCFD"/>
<path fill-rule="evenodd" clip-rule="evenodd" d="M9.16441 12.1178C9.65688 11.1328 9.99996 9.67884 9.99996 8C9.99996 6.32116 9.65688 4.86718 9.16441 3.88224C8.63207 2.81755 8.14333 2.66667 7.99996 2.66667C7.85659 2.66667 7.36785 2.81755 6.83551 3.88224C6.34304 4.86718 5.99996 6.32116 5.99996 8C5.99996 9.67884 6.34304 11.1328 6.83551 12.1178C7.36785 13.1825 7.85659 13.3333 7.99996 13.3333C8.14333 13.3333 8.63207 13.1825 9.16441 12.1178ZM7.99996 14.6667C9.84091 14.6667 11.3333 11.6819 11.3333 8C11.3333 4.3181 9.84091 1.33333 7.99996 1.33333C6.15901 1.33333 4.66663 4.3181 4.66663 8C4.66663 11.6819 6.15901 14.6667 7.99996 14.6667Z" fill="#FCFCFD"/>
<path fill-rule="evenodd" clip-rule="evenodd" d="M14.6338 8.66667C14.6556 8.4474 14.6667 8.225 14.6667 8C14.6667 7.775 14.6556 7.5526 14.6338 7.33333H1.36629C1.34452 7.5526 1.33337 7.775 1.33337 8C1.33337 8.225 1.34452 8.4474 1.36629 8.66667H14.6338Z" fill="#FCFCFD"/>
</svg>
