<svg width="16" height="16" viewBox="0 0 16 16" fill="none" xmlns="http://www.w3.org/2000/svg">
<g clip-path="url(#clip0_2_2)">
<path fill-rule="evenodd" clip-rule="evenodd" d="M3.09838 1.56828C3.959 0.707666 5.38234 0.808821 6.1126 1.7825L7.32478 3.39874C7.92196 4.19498 7.84277 5.30917 7.13899 6.01295L6.24528 6.90666C6.33189 7.1321 6.61702 7.62683 7.48528 8.49509C8.35355 9.36336 8.84827 9.64848 9.07371 9.73509L9.96742 8.84138C10.6712 8.1376 11.7854 8.05841 12.5816 8.6556L14.1979 9.86778C15.1716 10.598 15.2727 12.0214 14.4121 12.882C14.1323 13.1618 14.0849 13.2091 13.618 13.6761C13.1421 14.1519 12.1317 14.5967 11.1087 14.6412C9.50782 14.7108 7.33331 14 4.65685 11.3235C1.9804 8.64707 1.26956 6.47256 1.33917 4.87168C1.37789 3.98114 1.66101 3.00305 2.30804 2.36608C2.77124 1.89543 2.83147 1.83519 3.09838 1.56828ZM2.67124 4.92959C2.62299 6.03929 3.09066 7.87171 5.59966 10.3807C8.10866 12.8897 9.94109 13.3574 11.0508 13.3091C12.0867 13.2641 12.6424 12.7635 12.6752 12.7333L13.4693 11.9392C13.7562 11.6523 13.7224 11.1779 13.3979 10.9344L11.7816 9.72226C11.5162 9.5232 11.1448 9.5496 10.9102 9.78419C10.5568 10.1376 10.3155 10.3825 9.8432 10.853C8.86212 11.8304 7.18273 10.0782 6.54247 9.4379C5.95409 8.84952 4.16098 7.11681 5.12641 6.13993C5.12832 6.13801 5.38836 5.87797 6.19618 5.07015C6.43078 4.83555 6.45717 4.46415 6.25811 4.19874L5.04593 2.5825C4.80251 2.25794 4.32806 2.22422 4.04119 2.51109C3.77716 2.77513 3.47834 3.07394 3.24792 3.30596C2.77367 3.78348 2.69662 4.34586 2.67124 4.92959Z" fill="#FCFCFD"/>
</g>
<defs>
<clipPath id="clip0_2_2">
<rect width="16" height="16" fill="white"/>
</clipPath>
</defs>
</svg>
