<svg width="184" height="32" viewBox="0 0 184 32" fill="none" xmlns="http://www.w3.org/2000/svg">
<g clip-path="url(#clip0_1_184)">
<path d="M8.46074 0L15.7018 7.3817L13.3009 13.5592L7.24108 16.0067L0 8.62504L2.38807 2.45795L8.46074 0Z" fill="#FF7733"/>
<path d="M24.1591 16.0104L31.4001 23.3921L28.9993 29.5696L22.9394 32.0171L15.6983 24.6354L18.0864 18.4683L24.1591 16.0104Z" fill="#FF7733"/>
<path d="M15.6981 7.38166L22.9392 -4.3869e-05L28.999 2.44746L31.3999 8.625L24.1588 16.0067L18.1092 13.5723L15.6981 7.38166Z" fill="#FF7733"/>
<path d="M0 23.3921L7.24108 16.0104L13.3009 18.4553L15.7018 24.6354L8.46074 32.0171L2.41113 29.5827L0 23.3921Z" fill="#FF7733"/>
<path d="M53.1938 14.1045H44.3411V6.11158H40.4053V25.8719H44.3411V17.7614H53.1938V25.8719H57.1859V6.11158H53.1938V14.1045Z" fill="#FCFCFD"/>
<path d="M69.472 11.6172C68.4983 11.1156 67.3171 10.8649 65.9283 10.8649C64.5396 10.8649 63.4403 11.1052 62.4564 11.5884C61.4725 12.0717 60.7063 12.743 60.1554 13.6076C59.6045 14.4722 59.3304 15.4856 59.3304 16.6454V16.9693H63.0918V16.6454C63.0918 15.7991 63.3045 15.214 63.7273 14.8901C64.1501 14.5662 64.8265 14.4042 65.7515 14.4042C66.6765 14.4042 67.3325 14.5427 67.8347 14.8169C68.3369 15.0938 68.588 15.7312 68.588 16.7342V17.2488L63.5838 18.0011C62.5819 18.1395 61.7313 18.385 61.0369 18.7377C60.3425 19.0929 59.8223 19.5526 59.4739 20.1247C59.1254 20.6941 58.9537 21.3628 58.9537 22.1307C58.9537 23.4472 59.3919 24.4502 60.2707 25.1398C61.1471 25.8294 62.2232 26.1716 63.4967 26.1716C64.4217 26.1716 65.2032 26.0541 65.8412 25.8164C66.4767 25.5813 67.0173 25.2757 67.4606 24.9021C67.9039 24.5286 68.2703 24.1551 68.5598 23.7816H68.6751V25.8764H72.3776V17.1469C72.3776 15.8304 72.1368 14.7046 71.6551 13.7695C71.1734 12.837 70.4457 12.1187 69.4694 11.6172H69.472ZM68.0115 21.9244C67.6246 22.358 67.1429 22.6531 66.5638 22.8099C65.9847 22.9666 65.4159 23.045 64.8573 23.045C64.1424 23.045 63.6171 22.9509 63.2815 22.7655C62.9432 22.58 62.7741 22.2692 62.7741 21.8356C62.7741 21.4829 62.8945 21.2113 63.1354 21.0258C63.3763 20.8404 63.758 20.7072 64.2782 20.6288L68.588 19.9653V20.0097C68.588 20.856 68.3958 21.4934 68.0089 21.927L68.0115 21.9244Z" fill="#FCFCFD"/>
<path d="M84.2634 11.1647L82.0367 17.4467L81.0528 20.3069H80.7915L79.6051 17.4467L77.0889 11.1647H72.692L78.8134 25.322L78.4777 26.0613C78.2471 26.5915 77.9909 26.9259 77.7116 27.0643C77.4323 27.2027 77.0018 27.2706 76.4253 27.2706H74.1679V30.6036C74.4369 30.682 74.7982 30.7499 75.2517 30.81C75.7053 30.8701 76.1537 30.8988 76.597 30.8988C77.5424 30.8988 78.3419 30.7891 78.9978 30.5749C79.6538 30.3581 80.2226 29.9715 80.7043 29.4099C81.1861 28.8483 81.6293 28.0882 82.0342 27.1244L88.6603 11.1673H84.2634V11.1647Z" fill="#FCFCFD"/>
<path d="M99.5573 11.8078C98.4862 11.1783 97.1897 10.8649 95.6651 10.8649C94.1405 10.8649 92.8261 11.1783 91.7166 11.8078C90.6071 12.4374 89.7641 13.3255 89.185 14.4774C88.606 15.6267 88.3164 16.9693 88.3164 18.5026C88.3164 20.0359 88.606 21.4072 89.185 22.5591C89.7641 23.7084 90.6071 24.5991 91.7166 25.2286C92.8261 25.8582 94.1431 26.1716 95.6651 26.1716C97.1871 26.1716 98.4862 25.8582 99.5573 25.2286C100.628 24.5991 101.456 23.711 102.045 22.5591C102.635 21.4098 102.927 20.0568 102.927 18.5026C102.927 16.9484 102.632 15.6267 102.045 14.4774C101.456 13.3281 100.628 12.4374 99.5573 11.8078ZM98.3427 21.6893C97.8303 22.2979 96.9386 22.6035 95.6677 22.6035C94.3968 22.6035 93.5205 22.2979 92.9926 21.6893C92.4622 21.0807 92.1983 20.0176 92.1983 18.5052C92.1983 16.9928 92.4622 15.9349 92.9926 15.3341C93.523 14.7334 94.4147 14.4356 95.6677 14.4356C96.9206 14.4356 97.8328 14.736 98.3427 15.3341C98.8526 15.9349 99.1088 16.9902 99.1088 18.5052C99.1088 20.0202 98.8526 21.0807 98.3427 21.6893Z" fill="#FCFCFD"/>
<path d="M109.445 7.58949H106.35L105.565 11.1576H103.108V14.4906H105.481V21.0678C105.481 22.7996 105.94 24.0324 106.854 24.769C107.769 25.5057 109.135 25.874 110.949 25.874C111.431 25.874 111.912 25.8452 112.397 25.7851C112.878 25.7251 113.293 25.6572 113.642 25.5788V22.2458H111.992C110.969 22.2458 110.29 22.157 109.952 21.9794C109.614 21.8017 109.445 21.3708 109.445 20.6812V14.488H113.639V11.155H109.445V7.58687V7.58949Z" fill="#FCFCFD"/>
<path d="M132.153 15.5516V15.2564C133.444 15.0997 134.405 14.653 135.03 13.9138C135.658 13.1772 135.971 12.229 135.971 11.0667C135.971 9.90428 135.73 8.96394 135.248 8.23517C134.766 7.50902 134.062 6.97093 133.137 6.62875C132.212 6.28396 131.082 6.11156 129.752 6.11156H120.407V25.8745H130.157C131.584 25.8745 132.788 25.6524 133.772 25.211C134.756 24.7696 135.499 24.14 135.999 23.3225C136.501 22.5075 136.752 21.5489 136.752 20.4466C136.752 19.1301 136.365 18.0174 135.594 17.1136C134.823 16.2098 133.675 15.6874 132.15 15.5516H132.153ZM124.34 9.74233H129.432C130.339 9.74233 130.995 9.88077 131.399 10.155C131.804 10.4293 132.007 11.0092 132.007 11.8947C132.007 12.7802 131.804 13.3313 131.399 13.6056C130.995 13.8798 130.349 14.0183 129.46 14.0183H124.338V9.74233H124.34ZM132.037 21.7892C131.574 22.0948 130.9 22.2463 130.013 22.2463H124.343V17.38H130.013C130.9 17.38 131.576 17.5263 132.037 17.8215C132.501 18.1166 132.732 18.7853 132.732 19.8275C132.732 20.8697 132.501 21.4836 132.037 21.7892V21.7892Z" fill="#FCFCFD"/>
<path d="M148.453 11.6172C147.48 11.1156 146.299 10.8649 144.91 10.8649C143.521 10.8649 142.422 11.1052 141.438 11.5884C140.454 12.0717 139.688 12.743 139.137 13.6076C138.586 14.4722 138.312 15.4856 138.312 16.6454V16.9693H142.073V16.6454C142.073 15.7991 142.286 15.214 142.709 14.8901C143.131 14.5662 143.808 14.4042 144.733 14.4042C145.658 14.4042 146.314 14.5427 146.816 14.8169C147.318 15.0938 147.569 15.7312 147.569 16.7342V17.2488L142.565 18.0011C141.563 18.1395 140.713 18.385 140.018 18.7377C139.324 19.0929 138.804 19.5526 138.455 20.1247C138.107 20.6941 137.935 21.3628 137.935 22.1307C137.935 23.4472 138.373 24.4502 139.252 25.1398C140.128 25.8294 141.205 26.1716 142.478 26.1716C143.403 26.1716 144.185 26.0541 144.823 25.8164C145.458 25.5813 145.999 25.2757 146.442 24.9021C146.885 24.5286 147.252 24.1551 147.541 23.7816H147.657V25.8764H151.359V17.1469C151.359 15.8304 151.118 14.7046 150.636 13.7695C150.155 12.837 149.425 12.1187 148.451 11.6172H148.453ZM146.993 21.9244C146.606 22.358 146.124 22.6531 145.545 22.8099C144.966 22.9666 144.397 23.045 143.839 23.045C143.124 23.045 142.599 22.9509 142.263 22.7655C141.925 22.58 141.756 22.2692 141.756 21.8356C141.756 21.4829 141.876 21.2113 142.117 21.0258C142.358 20.8404 142.739 20.7072 143.26 20.6288L147.569 19.9653V20.0097C147.569 20.856 147.377 21.4934 146.99 21.927L146.993 21.9244Z" fill="#FCFCFD"/>
<path d="M165.438 11.6172C164.638 11.1156 163.601 10.8649 162.327 10.8649C161.441 10.8649 160.677 10.9877 160.042 11.2332C159.406 11.4787 158.876 11.8287 158.45 12.2806C158.025 12.7325 157.679 13.234 157.41 13.7852H157.267V11.1601H153.592V25.8764H157.556V17.5309C157.556 16.7055 157.671 16.0603 157.905 15.598C158.135 15.1356 158.484 14.8117 158.945 14.6237C159.409 14.4382 160.006 14.3442 160.739 14.3442C161.897 14.3442 162.691 14.5714 163.127 15.0233C163.56 15.4752 163.777 16.2536 163.777 17.3533V25.8764H167.769V16.5853C167.769 15.5039 167.582 14.5296 167.206 13.665C166.829 12.8004 166.242 12.1161 165.44 11.6146L165.438 11.6172Z" fill="#FCFCFD"/>
<path d="M184.314 11.1555H179.686L176.214 16.6983H173.957V6.11156H169.993V25.8718H173.957V20.3264H176.27L179.655 25.8718H184.285L179.396 18.1166L184.314 11.1555Z" fill="#FCFCFD"/>
</g>
<defs>
<clipPath id="clip0_1_184">
<rect width="184" height="32" fill="white"/>
</clipPath>
</defs>
</svg>
