<svg width="16" height="16" viewBox="0 0 16 16" fill="none" xmlns="http://www.w3.org/2000/svg">
<path fill-rule="evenodd" clip-rule="evenodd" d="M11.0944 10.8296C12.0282 9.53339 12.6667 8.1087 12.6667 6.66667C12.6667 4.08934 10.5773 2 8 2C5.42267 2 3.33333 4.08934 3.33333 6.66667C3.33333 8.1087 3.97179 9.53339 4.90564 10.8296C5.83245 12.1161 6.97209 13.1668 7.78459 13.8323C7.91787 13.9415 8.08213 13.9415 8.21541 13.8323C9.02791 13.1668 10.1675 12.1161 11.0944 10.8296ZM9.06026 14.8638C10.7831 13.4528 14 10.3278 14 6.66667C14 3.35296 11.3137 0.666666 8 0.666666C4.68629 0.666666 2 3.35296 2 6.66667C2 10.3278 5.21692 13.4528 6.93974 14.8638C7.56437 15.3754 8.43563 15.3754 9.06026 14.8638Z" fill="#FCFCFD"/>
<path fill-rule="evenodd" clip-rule="evenodd" d="M8.00004 5.33333C7.26366 5.33333 6.66671 5.93029 6.66671 6.66667C6.66671 7.40305 7.26366 8 8.00004 8C8.73642 8 9.33337 7.40305 9.33337 6.66667C9.33337 5.93029 8.73642 5.33333 8.00004 5.33333ZM5.33337 6.66667C5.33337 5.19391 6.52728 4 8.00004 4C9.4728 4 10.6667 5.19391 10.6667 6.66667C10.6667 8.13943 9.4728 9.33333 8.00004 9.33333C6.52728 9.33333 5.33337 8.13943 5.33337 6.66667Z" fill="#FCFCFD"/>
</svg>
