<svg width="16" height="16" viewBox="0 0 16 16" fill="none" xmlns="http://www.w3.org/2000/svg">
<path fill-rule="evenodd" clip-rule="evenodd" d="M9.93714 10.8799C9.03401 11.5819 7.89918 12 6.66671 12C3.72119 12 1.33337 9.61219 1.33337 6.66667C1.33337 3.72115 3.72119 1.33333 6.66671 1.33333C9.61223 1.33333 12 3.72115 12 6.66667C12 7.89914 11.582 9.03397 10.8799 9.9371L14.4714 13.5286C14.7318 13.7889 14.7318 14.2111 14.4714 14.4714C14.2111 14.7318 13.789 14.7318 13.5286 14.4714L9.93714 10.8799ZM10.6667 6.66667C10.6667 8.87581 8.87585 10.6667 6.66671 10.6667C4.45757 10.6667 2.66671 8.87581 2.66671 6.66667C2.66671 4.45753 4.45757 2.66667 6.66671 2.66667C8.87585 2.66667 10.6667 4.45753 10.6667 6.66667Z" fill="#FCFCFD"/>
</svg>
