<svg width="16" height="16" viewBox="0 0 16 16" fill="none" xmlns="http://www.w3.org/2000/svg">
<path fill-rule="evenodd" clip-rule="evenodd" d="M8.64717 10.0005C8.27924 9.98658 7.96972 10.2736 7.95583 10.6415C7.92452 11.471 7.88053 12.0764 7.83729 12.5104C7.79471 12.9379 7.53665 13.1951 7.17693 13.239C6.75276 13.2909 6.1544 13.3333 5.3333 13.3333C4.51218 13.3333 3.91381 13.2909 3.48965 13.239C3.13011 13.1951 2.87192 12.9378 2.82933 12.5102C2.74907 11.7045 2.66664 10.3125 2.66664 8C2.66664 5.68745 2.74907 4.29547 2.82933 3.48978C2.87192 3.06222 3.13011 2.80491 3.48965 2.76095C3.91381 2.7091 4.51218 2.66666 5.33331 2.66666C6.15441 2.66666 6.75277 2.7091 7.17693 2.76095C7.53665 2.80492 7.79471 3.06212 7.83729 3.48958C7.88053 3.92363 7.92452 4.52902 7.95583 5.35848C7.96972 5.72641 8.27924 6.01341 8.64717 5.99952C9.0151 5.98563 9.3021 5.67611 9.28821 5.30818C9.25607 4.45683 9.2105 3.82362 9.16406 3.35741C9.06642 2.3773 8.38309 1.56513 7.33872 1.43747C6.85258 1.37804 6.19943 1.33333 5.33331 1.33333C4.46716 1.33333 3.814 1.37804 3.32786 1.43747C2.2834 1.56516 1.60018 2.3777 1.50257 3.35762C1.41661 4.22045 1.33331 5.65898 1.33331 8C1.33331 10.341 1.41661 11.7795 1.50257 12.6424C1.60018 13.6223 2.2834 14.4348 3.32786 14.5625C3.814 14.622 4.46716 14.6667 5.3333 14.6667C6.19942 14.6667 6.85257 14.622 7.33871 14.5625C8.38308 14.4349 9.06642 13.6227 9.16406 12.6426C9.2105 12.1764 9.25607 11.5432 9.28821 10.6918C9.3021 10.3239 9.0151 10.0144 8.64717 10.0005Z" fill="#FCFCFD"/>
<path fill-rule="evenodd" clip-rule="evenodd" d="M11.1952 9.86193C10.9349 10.1223 10.9349 10.5444 11.1952 10.8047C11.4556 11.0651 11.8777 11.0651 12.138 10.8047L14.4714 8.4714C14.7317 8.21106 14.7317 7.78895 14.4714 7.5286L12.138 5.19526C11.8777 4.93491 11.4556 4.93491 11.1952 5.19526C10.9349 5.45561 10.9349 5.87772 11.1952 6.13807L12.3905 7.33333H5.99996C5.63177 7.33333 5.33329 7.63181 5.33329 8C5.33329 8.36819 5.63177 8.66667 5.99996 8.66667L12.3905 8.66667L11.1952 9.86193Z" fill="#FCFCFD"/>
</svg>
